<svg width="154" height="154" viewBox="0 0 154 154" fill="none" xmlns="http://www.w3.org/2000/svg">
<path d="M5.99431 47.1626C9.85861 37.9591 15.4804 29.5938 22.5464 22.5329C29.5912 15.4598 37.9596 9.83614 47.1764 5.9814C56.6183 2.01335 66.763 -0.0206654 77.0081 0.000158285H77.3525C87.7729 0.0517207 97.8489 2.11422 107.339 6.17046C116.477 10.0647 124.767 15.6983 131.745 22.7564C138.743 29.8014 144.3 38.1375 148.108 47.3001C152.061 56.8282 154.063 67.049 153.998 77.361C153.947 89.2891 151.088 101.131 145.748 111.719V137.844C145.748 142.209 142.2 145.75 137.843 145.75H111.697C101.037 151.117 89.2747 153.942 77.3353 154H76.9736C66.6738 154 56.7012 152.006 47.297 148.105C38.1268 144.296 29.7897 138.738 22.7531 131.742C15.6569 124.713 10.0764 116.497 6.16655 107.336C2.11896 97.8485 0.0520935 87.7594 0.000427246 77.3438C-0.0340271 66.8766 1.99838 56.7188 5.99431 47.1626ZM111.387 85.2501C115.934 85.2501 119.637 81.5548 119.637 77.0001C119.637 72.4454 115.934 68.7501 111.387 68.7501C106.84 68.7501 103.137 72.4454 103.137 77.0001C103.137 81.5548 106.822 85.2501 111.387 85.2501ZM77.0081 85.2501C81.5551 85.2501 85.2583 81.5548 85.2583 77.0001C85.2583 72.4454 81.5551 68.7501 77.0081 68.7501C72.461 68.7501 68.7579 72.4454 68.7579 77.0001C68.7579 81.5548 72.461 85.2501 77.0081 85.2501ZM42.6293 85.2501C47.1764 85.2501 50.8795 81.5548 50.8795 77.0001C50.8795 72.4454 47.1764 68.7501 42.6293 68.7501C38.0823 68.7501 34.3791 72.4454 34.3791 77.0001C34.3791 81.5548 38.0823 85.2501 42.6293 85.2501Z" fill="#F22F04"/>
</svg>
